<svg xmlns="http://www.w3.org/2000/svg" width="64" height="64" viewBox="0 0 10240 10560">
    <g id="l5n0AvJI4VgjfdomZ18CSFO" fill="rgb(208,35,33)" style="transform: none;">
        <g style="transform: none;">
            <path id="pybmU9T9j"
                d="M4820 10210 c-491 -39 -933 -132 -1355 -285 -198 -72 -195 -70 -195 -109 0 -19 13 -64 30 -101 114 -255 169 -554 149 -812 -52 -646 -481 -1204 -1069 -1391 -173 -55 -247 -65 -425 -59 -167 5 -250 20 -410 72 -110 36 -115 38 -355 161 -56 28 -76 33 -138 34 -94 0 -123 -15 -150 -77 -106 -250 -91 -765 33 -1148 48 -147 168 -391 254 -518 243 -355 630 -638 1021 -745 193 -53 230 -57 530 -57 324 0 398 10 623 86 302 102 535 235 915 522 415 313 483 363 618 453 279 185 590 354 849 462 194 80 251 97 335 97 66 0 84 -4 144 -35 85 -42 154 -110 350 -344 319 -379 324 -383 485 -374 76 4 90 12 246 134 85 67 191 121 264 134 107 20 240 -36 346 -146 57 -58 94 -114 220 -329 28 -49 69 -103 89 -120 35 -28 45 -30 132 -33 113 -5 120 -2 279 117 134 101 223 147 307 161 75 12 99 6 200 -46 63 -33 112 -77 356 -316 l283 -278 53 0 53 0 6 107 c9 194 -11 460 -58 760 -87 545 -285 1117 -554 1598 -140 250 -346 544 -550 785 -161 190 -485 509 -653 643 -80 64 -149 117 -153 117 -11 0 -128 82 -174 122 -24 21 -51 38 -60 38 -9 1 -34 14 -56 30 -43 32 -54 39 -184 116 -92 55 -472 244 -490 244 -6 0 -27 7 -48 16 -21 9 -47 21 -58 25 -117 51 -382 135 -530 170 -22 5 -56 13 -75 19 -84 23 -228 51 -390 76 -164 26 -198 27 -555 30 -209 1 -427 -2 -485 -6z">
            </path>
            <path id="p1Ce31yUah"
                d="M2366 9415 c-119 -71 -313 -225 -456 -361 -124 -117 -348 -349 -408 -423 -49 -59 -53 -67 -50 -110 3 -46 4 -47 82 -98 99 -66 205 -110 293 -123 102 -14 251 -12 317 5 198 52 362 214 433 430 23 70 27 101 31 243 4 142 1 176 -17 256 -12 51 -35 120 -51 154 l-29 62 -44 0 c-32 0 -59 -9 -101 -35z">
            </path>
            <path id="pDxjtj4Eq"
                d="M325 5563 c-10 -151 1 -546 19 -733 50 -497 167 -963 363 -1449 324 -802 849 -1498 1548 -2053 598 -475 1354 -799 2152 -923 264 -41 325 -46 672 -52 386 -7 361 -14 361 94 0 138 -67 263 -270 508 -275 331 -307 464 -179 758 52 119 69 189 69 275 0 57 -5 80 -28 123 -28 55 -69 92 -253 229 -177 132 -260 236 -294 365 -30 117 -12 218 66 366 113 215 114 218 117 307 7 140 -18 181 -247 417 -264 270 -348 428 -374 698 l-11 117 -38 0 c-24 0 -65 -13 -106 -34 -165 -83 -446 -172 -682 -217 -162 -31 -525 -38 -730 -14 -435 49 -800 175 -1165 400 -134 83 -151 96 -290 211 -233 193 -381 357 -542 597 -80 120 -87 127 -118 127 l-33 0 -7 -117z">
            </path>
        </g>
    </g>
    <g id="l1hscLWtyYmAoABIpeWZtrn" fill="rgb(1,1,1)" style="transform: none;">
        <g style="transform: none;">
            <path id="pz6guIInm"
                d="M4855 10483 c-602 -47 -1053 -146 -1565 -343 -242 -92 -295 -126 -331 -205 -30 -65 -24 -92 49 -241 118 -238 160 -396 168 -629 9 -237 -29 -429 -125 -631 -203 -425 -591 -695 -1035 -720 -221 -13 -374 26 -665 170 -252 124 -357 141 -488 81 -70 -32 -153 -112 -191 -183 -40 -74 -77 -204 -96 -335 -20 -132 -21 -405 -2 -558 56 -449 242 -891 510 -1209 352 -418 822 -687 1341 -765 137 -20 479 -20 622 1 240 35 461 104 698 219 250 121 447 251 872 576 358 274 557 405 853 564 232 125 509 245 581 253 82 8 76 14 439 -418 217 -258 360 -350 542 -350 124 0 219 42 374 165 125 100 150 115 199 115 47 0 83 -19 126 -67 34 -38 48 -59 165 -258 67 -114 162 -215 240 -257 143 -77 325 -74 469 7 33 18 111 72 174 120 63 48 125 91 138 96 37 14 90 11 126 -7 18 -9 149 -132 292 -273 277 -274 309 -302 395 -347 49 -26 65 -29 145 -29 106 0 147 17 212 88 70 76 78 118 77 417 0 287 -15 438 -70 745 -179 988 -578 1815 -1226 2540 -591 662 -1337 1154 -2160 1426 -522 173 -1023 251 -1578 247 -129 -1 -253 -3 -275 -5z m975 -327 c162 -25 306 -53 390 -76 19 -6 53 -14 75 -19 148 -35 413 -119 530 -170 11 -4 37 -16 58 -25 21 -9 42 -16 48 -16 18 0 398 -189 490 -244 130 -77 141 -84 184 -116 22 -16 47 -29 56 -30 9 0 36 -17 60 -38 46 -40 163 -122 174 -122 4 0 73 -53 153 -117 168 -134 492 -453 653 -643 204 -241 410 -535 550 -785 394 -705 623 -1578 610 -2322 -1 -81 -2 -83 -25 -83 -19 0 -94 68 -308 278 -257 252 -291 282 -365 320 -96 50 -143 58 -242 43 -93 -15 -176 -57 -316 -162 -152 -113 -171 -122 -250 -117 -84 5 -121 35 -190 153 -126 215 -163 271 -220 329 -72 75 -149 120 -240 143 -133 33 -278 -12 -430 -131 -166 -130 -204 -148 -288 -132 -75 14 -113 51 -383 372 -196 234 -265 302 -350 344 -66 33 -74 35 -174 35 -117 0 -153 -9 -365 -97 -259 -108 -570 -277 -849 -462 -135 -90 -203 -140 -618 -453 -380 -287 -613 -420 -915 -522 -220 -74 -303 -86 -593 -86 -267 0 -311 5 -500 57 -248 68 -519 221 -735 415 -290 261 -518 670 -601 1083 -36 177 -50 386 -36 539 14 140 42 272 71 329 37 72 116 82 221 28 240 -123 245 -125 355 -161 171 -56 240 -67 440 -72 211 -6 278 3 455 59 452 144 819 512 983 984 141 406 118 876 -63 1279 -17 37 -30 69 -30 71 0 11 264 107 435 159 355 107 713 173 1115 205 58 4 263 7 455 6 323 -3 363 -5 525 -30z">
            </path>
            <path id="phre5eh8X"
                d="M2368 9721 c-221 -111 -542 -371 -854 -694 -305 -315 -384 -424 -384 -529 0 -90 55 -157 214 -263 141 -94 279 -159 403 -191 89 -23 112 -25 248 -21 134 4 160 7 245 35 286 95 507 324 603 627 96 305 37 716 -137 958 -64 89 -112 117 -200 117 -51 0 -74 -6 -138 -39z m142 -363 c52 -110 73 -228 68 -380 -4 -108 -10 -148 -31 -213 -72 -218 -235 -379 -438 -431 -89 -23 -253 -14 -350 20 -76 27 -200 94 -251 136 -29 24 -31 30 -21 51 31 66 418 461 603 616 173 145 342 263 378 263 7 0 26 -28 42 -62z">
            </path>
            <path id="psxunytyD"
                d="M214 6336 c-39 -17 -88 -76 -102 -124 -27 -89 -49 -325 -61 -642 -29 -767 100 -1520 384 -2239 484 -1225 1442 -2249 2610 -2788 482 -223 1036 -378 1586 -444 253 -31 719 -34 819 -6 165 47 257 152 267 308 15 207 -64 375 -334 711 -156 194 -168 213 -184 287 -14 68 0 135 62 285 64 154 79 216 79 314 0 61 -6 98 -24 148 -48 131 -113 201 -339 368 -180 133 -221 180 -233 268 -9 64 10 119 88 261 39 70 81 161 94 203 54 170 13 360 -109 509 -23 27 -108 118 -189 202 -196 203 -252 286 -289 430 -22 89 -25 237 -7 356 10 67 9 84 -6 132 -22 69 -66 106 -135 113 -63 6 -104 -8 -223 -74 -536 -296 -1090 -388 -1683 -279 -305 56 -593 172 -860 346 -161 104 -265 191 -412 342 -238 245 -381 464 -534 816 -32 73 -69 145 -81 159 -46 49 -122 65 -184 38z m239 -813 c161 -240 309 -404 542 -597 139 -115 156 -128 290 -211 364 -225 730 -351 1164 -400 211 -24 630 -17 791 14 237 45 517 134 682 217 37 19 71 34 76 34 4 0 13 -53 19 -117 26 -270 110 -428 374 -698 217 -223 256 -284 247 -388 -4 -54 -20 -90 -117 -276 -58 -110 -81 -193 -81 -293 0 -196 82 -328 309 -498 176 -132 221 -171 247 -215 51 -87 44 -164 -32 -343 -137 -324 -104 -492 157 -802 106 -127 203 -262 237 -332 41 -84 60 -167 46 -205 l-10 -28 -294 1 c-308 1 -406 9 -665 49 -1216 191 -2247 805 -3025 1804 -519 667 -874 1504 -1006 2374 -40 268 -64 697 -49 920 4 64 8 117 10 117 1 0 41 -57 88 -127z">
            </path>
        </g>
    </g>
    <g id="l254RaSabeVTwe8lTc9BTwK" fill="#1ed760" style="transform: none;">
        <g style="transform: none;">
            <path id="pMENysdm9"
                d="M6860 5407 c-87 -29 -158 -76 -222 -146 -66 -72 -111 -161 -144 -288 -85 -328 -176 -511 -339 -682 -126 -132 -248 -206 -460 -281 -156 -55 -209 -81 -269 -130 -170 -141 -237 -371 -166 -574 55 -159 194 -287 361 -331 70 -19 237 -19 319 0 393 92 793 352 1073 700 275 341 482 827 504 1180 12 206 -29 320 -166 455 -107 106 -143 120 -312 120 -91 0 -127 -5 -179 -23z m212 -287 c86 -24 137 -102 138 -208 0 -182 -124 -552 -265 -788 -200 -336 -449 -570 -786 -740 -153 -77 -246 -104 -356 -104 -134 0 -191 28 -235 114 -43 83 -5 205 81 263 18 12 81 38 139 57 236 76 406 179 573 345 212 213 335 442 425 788 40 155 67 211 120 244 59 36 109 45 166 29z">
            </path>
            <path id="p1AxfoAslw"
                d="M8159 5056 c-133 -37 -269 -149 -326 -267 -18 -37 -53 -145 -78 -240 -106 -401 -199 -614 -386 -894 -315 -470 -728 -787 -1252 -960 -238 -78 -313 -125 -403 -251 -122 -171 -130 -400 -21 -586 40 -69 138 -154 221 -194 70 -33 82 -36 203 -41 150 -6 221 7 424 81 617 224 1216 688 1622 1258 331 465 612 1153 634 1553 9 180 -31 295 -146 418 -49 52 -84 79 -136 104 -67 32 -73 33 -190 32 -66 0 -141 -6 -166 -13z m242 -320 c114 -76 115 -215 3 -578 -140 -455 -365 -872 -660 -1224 -120 -142 -362 -378 -490 -475 -283 -216 -567 -374 -869 -481 -111 -39 -128 -43 -215 -42 -103 1 -135 11 -182 61 -62 65 -74 156 -32 241 38 77 81 102 280 167 405 133 759 357 1069 676 182 187 292 331 417 541 159 270 249 503 359 936 12 45 31 97 43 114 63 93 189 122 277 64z">
            </path>
            <path id="pSTqBAf9c"
                d="M9447 4715 c-123 -35 -224 -109 -296 -215 -43 -65 -80 -170 -136 -385 -235 -898 -740 -1661 -1466 -2211 -329 -249 -633 -407 -1078 -558 -107 -37 -219 -81 -250 -98 -124 -71 -232 -218 -260 -356 -48 -233 69 -472 284 -578 77 -38 80 -39 210 -42 111 -4 145 -1 221 18 372 93 856 322 1269 601 610 412 1111 936 1487 1557 257 425 490 987 607 1462 56 231 61 362 20 495 -37 121 -140 244 -242 291 -57 26 -73 29 -192 31 -86 1 -146 -2 -178 -12z m190 -297 c30 -7 59 -24 84 -49 71 -71 72 -167 4 -424 -190 -725 -545 -1414 -1004 -1949 -533 -622 -1266 -1126 -1986 -1367 -117 -39 -139 -43 -225 -43 -106 0 -133 9 -187 66 -39 41 -53 76 -53 134 0 82 52 164 130 203 19 10 114 44 210 76 521 171 956 424 1411 821 629 550 1121 1381 1318 2229 50 212 81 263 189 301 46 16 53 17 109 2z">
            </path>
        </g>
    </g>
</svg>